<?xml version="1.0" encoding="utf-8"?>
<!-- Generator: Adobe Illustrator 23.0.1, SVG Export Plug-In . SVG Version: 6.00 Build 0)  -->
<svg version="1.1" id="Layer_1" xmlns="http://www.w3.org/2000/svg" xmlns:xlink="http://www.w3.org/1999/xlink" x="0px" y="0px"
	 viewBox="0 0 590 290" style="enable-background:new 0 0 590 290;" xml:space="preserve">
<style type="text/css">
	.st0{fill:#FC8B4C;}
	.st1{fill:#FDE9D4;}
	.st2{clip-path:url(#SVGID_2_);}
	.st3{fill:#FE7167;}
	.st4{fill:#236967;}
	.st5{fill:#FFCC1A;}
	.st6{fill:none;stroke:#FDE9D4;}
	.st7{fill:#FFCC1A;stroke:#000000;stroke-width:20;}
</style>
<g>
	<g>
		<path class="st0" d="M590,150H450v140h40c55.2,0,100-44.8,100-100V150z"/>
		<circle cx="500" cy="194" r="20"/>
		<circle class="st1" cx="500" cy="214" r="20"/>
	</g>
	<g>
		<g>
			<defs>
				<rect id="SVGID_1_" x="300" width="140" height="140"/>
			</defs>
			<clipPath id="SVGID_2_">
				<use xlink:href="#SVGID_1_"  style="overflow:visible;"/>
			</clipPath>
			<g class="st2">
				<rect x="300" class="st1" width="140" height="140"/>
				<circle class="st3" cx="420" cy="144" r="20"/>
				<ellipse transform="matrix(0.1602 -0.9871 0.9871 0.1602 182.281 502.2456)" class="st3" cx="386.3" cy="144" rx="20" ry="20"/>
				<circle class="st3" cx="352.6" cy="144" r="20"/>
				<circle class="st3" cx="320" cy="144" r="20"/>
				<path class="st3" d="M440,140c0-18.6-7.4-36.4-20.5-49.5S388.6,70,370,70s-36.4,7.4-49.5,20.5S300,121.4,300,140h12.9
					c0-15.1,6-29.7,16.7-40.4c10.7-10.7,25.2-16.7,40.4-16.7s29.7,6,40.4,16.7c10.7,10.7,16.7,25.2,16.7,40.4H440z"/>
				<circle class="st0" cx="370" cy="34" r="20"/>
			</g>
		</g>
	</g>
	<rect x="450" class="st4" width="140" height="140"/>
	<path class="st0" d="M520,78l33,62h-66L520,78z"/>
	<path class="st1" d="M520,66c3.4,9.3,10.7,16.6,20,20c-9.3,3.4-16.6,10.7-20,20c-3.4-9.3-10.7-16.6-20-20
		C509.3,82.6,516.6,75.3,520,66z"/>
	<path class="st1" d="M520,0c6,16.2,18.8,29,35,35c-16.2,6-29,18.8-35,35c-6-16.2-18.8-29-35-35C501.2,29,514,16.2,520,0z"/>
	<rect x="300" y="150" class="st4" width="140" height="140"/>
	<path class="st5" d="M440,150c0,18.6-7.4,36.4-20.5,49.5C406.4,212.6,388.6,220,370,220s-36.4-7.4-49.5-20.5
		C307.4,186.4,300,168.6,300,150h70H440z"/>
	<rect x="367.3" y="232.5" class="st6" width="7.3" height="49"/>
	
		<rect x="367.3" y="232.5" transform="matrix(0.7071 -0.7071 0.7071 0.7071 -73.0974 337.5913)" class="st6" width="7.3" height="49"/>
	
		<rect x="346.5" y="253.3" transform="matrix(0.7071 -0.7071 0.7071 0.7071 -73.0475 337.5707)" class="st6" width="49" height="7.3"/>
	<rect x="346.5" y="253.3" class="st6" width="49" height="7.3"/>
</g>
<g>
	<rect y="150" class="st1" width="140" height="140"/>
	<circle class="st4" cx="70.7" cy="221" r="50"/>
	<path class="st7" d="M35.4,185.6C26,195,20.7,207.7,20.7,221s5.3,26,14.6,35.4c9.4,9.4,22.1,14.6,35.4,14.6s26-5.3,35.4-14.6
		L70.7,221L35.4,185.6z"/>
	<rect x="150" y="150" class="st5" width="140" height="140"/>
	
		<rect x="174.9" y="152.4" transform="matrix(0.7071 -0.7071 0.7071 0.7071 -75.5754 182.3981)" class="st1" width="15" height="60"/>
	
		<rect x="152.4" y="174.9" transform="matrix(0.7071 -0.7071 0.7071 0.7071 -75.5754 182.3984)" class="st1" width="60" height="15"/>
	
		<rect x="174.9" y="227.3" transform="matrix(0.7071 -0.7071 0.7071 0.7071 -128.5176 204.3551)" class="st1" width="15" height="60"/>
	
		<rect x="152.4" y="249.8" transform="matrix(0.7071 -0.7071 0.7071 0.7071 -128.5177 204.3555)" class="st1" width="60" height="15"/>
	
		<rect x="249.8" y="152.4" transform="matrix(0.7071 -0.7071 0.7071 0.7071 -53.6188 235.3407)" class="st1" width="15" height="60"/>
	
		<rect x="227.3" y="174.9" transform="matrix(0.7071 -0.7071 0.7071 0.7071 -53.6183 235.3407)" class="st1" width="60" height="15"/>
	
		<rect x="249.8" y="227.3" transform="matrix(0.7071 -0.7071 0.7071 0.7071 -106.5609 257.2977)" class="st1" width="15" height="60"/>
	
		<rect x="227.3" y="249.8" transform="matrix(0.7071 -0.7071 0.7071 0.7071 -106.5606 257.2976)" class="st1" width="60" height="15"/>
	<rect class="st3" width="140" height="140"/>
	<path class="st1" d="M70,45L40,95h60L70,45z"/>
	<rect x="57" y="95" width="26" height="45"/>
	<circle cx="70" cy="20" r="10"/>
	<circle cx="100" cy="20" r="10"/>
	<circle cx="40" cy="20" r="10"/>
	<path class="st1" d="M150,0h140v140H150V0z"/>
	<path class="st4" d="M150,70c0-38.7,31.3-70,70-70v140C181.3,140,150,108.7,150,70z"/>
	<rect x="195.4" y="45.4" transform="matrix(0.7071 -0.7071 0.7071 0.7071 14.8092 176.4651)" class="st3" width="50" height="50"/>
	<circle cx="220" cy="70" r="7"/>
</g>
</svg>
